<?xml version="1.0" encoding="utf-8"?>
<!-- Generator: Adobe Illustrator 16.0.0, SVG Export Plug-In . SVG Version: 6.00 Build 0)  -->
<!DOCTYPE svg PUBLIC "-//W3C//DTD SVG 1.1//EN" "http://www.w3.org/Graphics/SVG/1.1/DTD/svg11.dtd">
<svg version="1.1" id="图层_1" xmlns="http://www.w3.org/2000/svg" xmlns:xlink="http://www.w3.org/1999/xlink" x="0px" y="0px"
	 width="64px" height="64px" viewBox="0 0 64 64" enable-background="new 0 0 64 64" xml:space="preserve">
<g>
	<path d="M53.46,56.604c0,1.104-0.896,2-2,2H7.459c-1.104,0-2-0.896-2-2V12.769c0-1.104,0.896-2,2-2h24.582l5.254-5.333H3.918
		c-2.209,0-4,1.791-4,4V60.02c0,2.209,1.791,4,4,4h50.875c2.209,0,4-1.791,4-4V26.521l-5.333,5.304V56.604z"/>
	<polygon points="16.043,48.02 26.709,45.686 56.209,16.853 47.043,7.686 18.377,37.354 	"/>
	<path d="M62.813,5.624c-2.688-2.688-4.188-4.188-4.188-4.188s-2.198-3.123-5.104-0.217s-4.813,4.967-4.813,4.967l9.168,9.167
		l5.206-5.044C63.083,10.308,65.501,8.311,62.813,5.624z"/>
</g>
</svg>
